<svg width="176" height="94" viewBox="0 0 176 94" fill="none" xmlns="http://www.w3.org/2000/svg">
<g clip-path="url(#clip0)">
<path d="M21.8276 62.6665H12.7817L11.1102 66.6438H7.96387L15.8298 49.0854H18.8778L26.6454 66.6438H23.4007L21.8276 62.6665ZM20.6477 60.0473L17.3046 52.2867L13.9616 60.0473H20.6477Z" fill="#A08B63"/>
<path d="M38.5433 53.3538V55.2939L30.7757 64.3156H38.7399V66.6437H27.1377V64.7036L34.9053 55.6819H27.4327V53.3538H38.5433Z" fill="#A08B63"/>
<path d="M49.1604 66.6429V64.9938C48.1772 66.1579 46.604 66.7399 44.6375 66.7399C41.6878 66.7399 39.918 64.9938 39.918 62.5686C39.918 60.1434 41.7861 58.5913 45.0308 58.5913H49.1604V58.2033C49.1604 56.5542 48.0789 55.4871 45.9157 55.4871C44.6375 55.4871 43.261 55.9721 41.8844 56.8452L40.7046 54.8081C42.5727 53.741 43.9493 53.1589 46.5057 53.1589C49.947 53.1589 51.9135 54.9051 52.0118 57.8153V66.5459H49.1604V66.6429ZM49.1604 61.9866V60.7255H45.5224C43.6543 60.7255 42.7694 61.2105 42.7694 62.4716C42.7694 63.6357 43.7526 64.4118 45.4241 64.4118C47.3906 64.5088 48.9638 63.4417 49.1604 61.9866Z" fill="#A08B63"/>
<path d="M68.2358 48.0169V66.6423H65.2861V64.3141C64.3028 65.8663 62.7297 66.7393 60.5665 66.7393C56.6336 66.7393 54.0771 63.9261 54.0771 59.8518C54.0771 55.8745 56.7319 53.0613 60.4682 53.0613C62.6313 53.0613 64.3028 53.9344 65.2861 55.4865V47.9199H68.2358V48.0169ZM65.2861 60.0458C65.2861 57.4266 63.6146 55.6805 61.1565 55.6805C58.6984 55.6805 57.0269 57.5236 57.0269 60.0458C57.0269 62.568 58.6984 64.4112 61.1565 64.4112C63.6146 64.4112 65.2861 62.568 65.2861 60.0458Z" fill="#A08B63"/>
<path d="M75.2167 49.4729C75.2167 50.443 74.4301 51.2191 73.5452 51.2191C72.6603 51.2191 71.7754 50.443 71.7754 49.4729C71.7754 48.5029 72.562 47.7268 73.4469 47.7268C74.3318 47.7268 75.2167 48.5029 75.2167 49.4729ZM74.9218 53.3532V66.7402H71.972V53.3532H74.9218Z" fill="#A08B63"/>
<path fill-rule="evenodd" clip-rule="evenodd" d="M38.7402 20.9529L44.8363 27.4524L46.2129 29.1985L47.4911 31.0416L45.9179 29.4895L44.2464 27.9374L38.7402 20.9529Z" fill="#A08B63"/>
<path fill-rule="evenodd" clip-rule="evenodd" d="M41.4941 19.1096L45.8204 26.8702L46.7053 29.0044L47.4919 31.0415L46.312 29.1014L45.1321 27.2582L41.4941 19.1096Z" fill="#A08B63"/>
<path fill-rule="evenodd" clip-rule="evenodd" d="M44.6396 18.1389L46.9994 26.6756L47.1961 28.8097L47.491 31.0409L46.8028 28.9067L46.1145 26.7726L44.6396 18.1389Z" fill="#A08B63"/>
<path fill-rule="evenodd" clip-rule="evenodd" d="M48.0805 17.9458V26.6765L47.7856 28.9076L47.4906 31.0418L47.3923 28.8106L47.2939 26.6765L48.0805 17.9458Z" fill="#A08B63"/>
<path fill-rule="evenodd" clip-rule="evenodd" d="M51.4232 18.7222L49.1617 27.0648L48.3751 29.0049L47.4902 31.0421L47.9819 28.9079L48.3751 26.7738L51.4232 18.7222Z" fill="#A08B63"/>
<path fill-rule="evenodd" clip-rule="evenodd" d="M54.4712 20.2739L50.145 27.6465L48.8668 29.3926L47.4902 31.0417L48.4735 29.1016L49.4567 27.2584L54.4712 20.2739Z" fill="#A08B63"/>
<path fill-rule="evenodd" clip-rule="evenodd" d="M57.0276 22.6025L50.9316 28.52L49.2601 29.7811L47.4902 31.0422L48.9651 29.4901L50.4399 27.9379L57.0276 22.6025Z" fill="#A08B63"/>
<path fill-rule="evenodd" clip-rule="evenodd" d="M58.9941 25.4148L51.5215 29.5861L49.4567 30.2652L47.4902 31.0412L49.3584 29.8771L51.1282 28.81L58.9941 25.4148Z" fill="#A08B63"/>
<path fill-rule="evenodd" clip-rule="evenodd" d="M60.174 28.7136L51.8165 30.6538L49.6534 30.8478L47.4902 31.0418L49.555 30.4598L51.6198 29.8777L60.174 28.7136Z" fill="#A08B63"/>
<path fill-rule="evenodd" clip-rule="evenodd" d="M60.469 32.1088L51.8165 31.8178L49.6534 31.4298L47.4902 31.0417H49.6534H51.8165L60.469 32.1088Z" fill="#A08B63"/>
<path fill-rule="evenodd" clip-rule="evenodd" d="M59.8791 35.5041L51.5215 32.8849L49.4567 32.0118L47.4902 31.0417L49.6534 31.6238L51.7182 32.1088L59.8791 35.5041Z" fill="#A08B63"/>
<path fill-rule="evenodd" clip-rule="evenodd" d="M58.5025 38.5113L50.9316 33.855L49.2601 32.3999L47.4902 31.0417L49.4567 32.1088L51.3249 33.1759L58.5025 38.5113Z" fill="#A08B63"/>
<path fill-rule="evenodd" clip-rule="evenodd" d="M56.3394 41.0335L50.145 34.631L48.7684 32.7879L47.4902 31.0417L49.0634 32.5939L50.7349 34.146L56.3394 41.0335Z" fill="#A08B63"/>
<path fill-rule="evenodd" clip-rule="evenodd" d="M53.488 42.9736L49.1617 35.1161L48.2768 33.0789L47.4902 31.0417L48.6701 32.8849L49.85 34.825L53.488 42.9736Z" fill="#A08B63"/>
<path fill-rule="evenodd" clip-rule="evenodd" d="M50.3416 43.9437L48.0802 35.4071L47.7852 33.1759L47.4902 31.0417L48.1785 33.1759L48.8668 35.2131L50.3416 43.9437Z" fill="#A08B63"/>
<path fill-rule="evenodd" clip-rule="evenodd" d="M46.9014 44.1377V35.3101L47.1963 33.1759L47.4913 31.0417L47.5896 33.1759L47.688 35.4071L46.9014 44.1377Z" fill="#A08B63"/>
<path fill-rule="evenodd" clip-rule="evenodd" d="M43.5557 43.3617L45.8171 35.019L46.702 32.9819L47.4886 31.0417L46.997 33.1759L46.6037 35.3101L43.5557 43.3617Z" fill="#A08B63"/>
<path fill-rule="evenodd" clip-rule="evenodd" d="M40.5107 41.8095L44.837 34.34L46.2135 32.6909L47.4917 31.0417L46.5085 32.8849L45.5253 34.825L40.5107 41.8095Z" fill="#A08B63"/>
<path fill-rule="evenodd" clip-rule="evenodd" d="M37.9531 39.4814L44.0492 33.5639L45.8191 32.3028L47.4906 31.0417L46.0157 32.5939L44.6392 34.146L37.9531 39.4814Z" fill="#A08B63"/>
<path fill-rule="evenodd" clip-rule="evenodd" d="M35.9863 36.5712L43.459 32.4969L45.5238 31.8178L47.4902 31.0417L45.7204 32.1088L43.8522 33.2729L35.9863 36.5712Z" fill="#A08B63"/>
<path fill-rule="evenodd" clip-rule="evenodd" d="M34.8066 33.3699L43.1642 31.4298L45.3273 31.2358L47.4904 31.0417L45.4256 31.6238L43.3608 32.2058L34.8066 33.3699Z" fill="#A08B63"/>
<path fill-rule="evenodd" clip-rule="evenodd" d="M34.5117 29.8784L43.1642 30.2664L45.3274 30.6545L47.4905 31.0425H45.3274H43.1642L34.5117 29.8784Z" fill="#A08B63"/>
<path fill-rule="evenodd" clip-rule="evenodd" d="M35.1025 26.5796L43.4601 29.1988L45.5249 30.0718L47.4914 31.0419L45.3282 30.4599L43.2634 29.9748L35.1025 26.5796Z" fill="#A08B63"/>
<path fill-rule="evenodd" clip-rule="evenodd" d="M36.5771 23.4751L44.0498 28.2285L45.8196 29.5866L47.4911 31.0417L45.5246 29.9746L43.6565 28.9075L36.5771 23.4751Z" fill="#A08B63"/>
<path fill-rule="evenodd" clip-rule="evenodd" d="M42.9669 18.625C43.2619 18.431 43.6552 18.625 43.8518 18.916C44.0485 19.207 43.8518 19.595 43.5568 19.7891C43.2619 19.9831 42.8686 19.7891 42.6719 19.498C42.4753 19.11 42.6719 18.722 42.9669 18.625Z" fill="#A08B63"/>
<path fill-rule="evenodd" clip-rule="evenodd" d="M46.2111 17.9458C46.6044 17.8488 46.8994 18.1398 46.9977 18.4308C47.096 18.8188 46.8994 19.1099 46.5061 19.2069C46.1128 19.3039 45.8178 19.0129 45.7195 18.7218C45.6212 18.3338 45.9161 18.0428 46.2111 17.9458Z" fill="#A08B63"/>
<path fill-rule="evenodd" clip-rule="evenodd" d="M49.6531 18.2375C50.0464 18.2375 50.2431 18.6256 50.2431 18.9166C50.2431 19.3046 49.9481 19.5957 49.5548 19.4986C49.1615 19.4986 48.9648 19.1106 48.9648 18.8196C48.9648 18.4316 49.2598 18.2375 49.6531 18.2375Z" fill="#A08B63"/>
<path fill-rule="evenodd" clip-rule="evenodd" d="M52.7995 19.4016C53.0944 19.4986 53.2911 19.8866 53.1928 20.2746C53.0944 20.5656 52.7011 20.7597 52.4062 20.6626C52.1112 20.5656 51.9146 20.1776 52.0129 19.7896C52.1112 19.4016 52.5045 19.2075 52.7995 19.4016Z" fill="#A08B63"/>
<path fill-rule="evenodd" clip-rule="evenodd" d="M55.7499 21.3413C56.0449 21.5353 56.1432 21.9234 55.9466 22.2144C55.7499 22.5054 55.3566 22.6024 55.0616 22.4084C54.7667 22.2144 54.6684 21.8264 54.865 21.5353C54.9633 21.1473 55.4549 21.0503 55.7499 21.3413Z" fill="#A08B63"/>
<path fill-rule="evenodd" clip-rule="evenodd" d="M58.0129 23.8633C58.3079 24.1543 58.2095 24.5424 58.0129 24.8334C57.7179 25.0274 57.3246 25.0274 57.128 24.7364C56.9313 24.4454 56.9313 24.0573 57.128 23.7663C57.3246 23.5723 57.8162 23.5723 58.0129 23.8633Z" fill="#A08B63"/>
<path fill-rule="evenodd" clip-rule="evenodd" d="M59.5842 26.9678C59.7809 27.2588 59.5842 27.6468 59.2893 27.8408C58.9943 28.0348 58.601 27.8408 58.4044 27.5498C58.2077 27.2588 58.4044 26.8707 58.6993 26.6767C59.0926 26.4827 59.4859 26.6767 59.5842 26.9678Z" fill="#A08B63"/>
<path fill-rule="evenodd" clip-rule="evenodd" d="M60.3697 30.363C60.468 30.751 60.2714 31.042 59.8781 31.139C59.4848 31.236 59.1898 30.945 59.0915 30.654C58.9931 30.2659 59.1898 29.9749 59.5831 29.8779C59.9764 29.6839 60.2714 29.9749 60.3697 30.363Z" fill="#A08B63"/>
<path fill-rule="evenodd" clip-rule="evenodd" d="M60.2724 33.7582C60.2724 34.1462 59.9774 34.3402 59.5841 34.3402C59.1908 34.3402 58.9941 33.9522 58.9941 33.6611C58.9941 33.2731 59.2891 33.0791 59.6824 33.0791C59.9774 33.0791 60.2724 33.3701 60.2724 33.7582Z" fill="#A08B63"/>
<path fill-rule="evenodd" clip-rule="evenodd" d="M59.2904 36.9596C59.1921 37.3476 58.7988 37.4446 58.5038 37.3476C58.2089 37.2506 58.0122 36.8626 58.1105 36.4745C58.2089 36.1835 58.6022 35.9895 58.8971 36.0865C59.1921 36.1835 59.3888 36.5715 59.2904 36.9596Z" fill="#A08B63"/>
<path fill-rule="evenodd" clip-rule="evenodd" d="M57.5188 39.7726C57.3222 40.0636 56.9289 40.1606 56.6339 39.9666C56.3389 39.7726 56.2406 39.3846 56.4373 39.0935C56.6339 38.8025 57.0272 38.7055 57.3222 38.8995C57.6171 39.0935 57.7155 39.4816 57.5188 39.7726Z" fill="#A08B63"/>
<path fill-rule="evenodd" clip-rule="evenodd" d="M55.0627 42.0043C54.7677 42.1983 54.3744 42.1983 54.1778 41.9073C53.9811 41.6163 53.9811 41.2282 54.1778 40.9372C54.4727 40.7432 54.866 40.7432 55.0627 41.0342C55.3577 41.3252 55.2593 41.7133 55.0627 42.0043Z" fill="#A08B63"/>
<path fill-rule="evenodd" clip-rule="evenodd" d="M52.0139 43.459C51.7189 43.653 51.3256 43.459 51.129 43.168C50.9323 42.8769 51.129 42.4889 51.4239 42.2949C51.7189 42.1009 52.1122 42.2949 52.3089 42.5859C52.5055 42.8769 52.4072 43.265 52.0139 43.459Z" fill="#A08B63"/>
<path fill-rule="evenodd" clip-rule="evenodd" d="M48.7677 44.0409C48.3744 44.1379 48.0794 43.8469 47.9811 43.5558C47.8828 43.1678 48.0794 42.8768 48.4727 42.7798C48.866 42.6828 49.161 42.9738 49.2593 43.2648C49.3576 43.6528 49.0627 44.0409 48.7677 44.0409Z" fill="#A08B63"/>
<path fill-rule="evenodd" clip-rule="evenodd" d="M45.4259 43.8475C45.0326 43.8475 44.8359 43.4595 44.8359 43.1685C44.8359 42.7804 45.1309 42.5864 45.5242 42.5864C45.9175 42.5864 46.1142 42.9745 46.1142 43.2655C46.0158 43.5565 45.7209 43.8475 45.4259 43.8475Z" fill="#A08B63"/>
<path fill-rule="evenodd" clip-rule="evenodd" d="M46.4101 29.7806C47.0983 29.1986 48.0816 29.2956 48.7698 29.9746C49.3598 30.6537 49.3598 31.7208 48.6715 32.3028C47.9832 32.8848 47 32.7878 46.3117 32.1088C45.7218 31.4297 45.7218 30.3627 46.4101 29.7806Z" fill="#A08B63"/>
<path fill-rule="evenodd" clip-rule="evenodd" d="M57.4219 22.3114C53.3906 17.6551 46.9996 16.297 41.8867 18.5281V19.6922C46.7046 17.364 52.8007 18.6251 56.7336 22.9904C61.3549 28.3258 61.0599 36.2804 55.9471 40.7428C52.0141 44.235 46.4096 44.526 41.8867 42.1009V43.2649C46.7046 45.6901 52.5057 45.2051 56.6353 41.6158C62.0431 36.5715 62.4364 28.0348 57.4219 22.3114Z" fill="#A08B63"/>
<path d="M92.4242 72.7555L87.7046 66.547L85.2465 69.1662V72.7555H82.8867V58.6895H85.2465V65.965L92.0309 58.6895H94.8823L89.3761 64.7039L95.2756 72.7555H92.4242Z" fill="#A08B63"/>
<path d="M103.339 72.7559V71.4948C102.553 72.4649 101.274 72.9499 99.7995 72.9499C97.4397 72.9499 95.9648 71.4948 95.9648 69.6517C95.9648 67.7115 97.4397 66.4504 100.094 66.4504H103.339V65.9654C103.339 64.6073 102.454 63.8313 100.783 63.8313C99.7012 63.8313 98.6196 64.2193 97.538 64.8983L96.5548 63.2492C98.0296 62.3761 99.2095 61.8911 101.176 61.8911C103.929 61.8911 105.502 63.2492 105.601 65.6744V72.6589H103.339V72.7559ZM103.339 68.9726V68.0026H100.389C98.8162 68.0026 98.128 68.3906 98.128 69.4577C98.128 70.4277 98.9146 71.0098 100.193 71.0098C101.963 71.0098 103.241 70.1367 103.339 68.9726Z" fill="#A08B63"/>
<path d="M64.6985 76.344L70.598 87.9849L76.4974 76.344H80.0371V93.9023H77.284V80.8063L71.6795 92.0592H69.7131L63.9119 80.8063V93.9023H61.0605V76.344H64.6985Z" fill="#A08B63"/>
<path d="M91.9329 93.9032V92.2541C90.9496 93.4182 89.3765 94.0002 87.41 94.0002C84.4603 94.0002 82.6904 92.2541 82.6904 89.8289C82.6904 87.4037 84.5586 85.8516 87.8033 85.8516H91.9329V85.4636C91.9329 83.8144 90.8513 82.7474 88.6882 82.7474C87.41 82.7474 86.0334 83.2324 84.6569 84.1055L83.477 82.0683C85.3452 81.0012 86.7217 80.4192 89.2781 80.4192C92.7195 80.4192 94.686 82.1653 94.7843 85.0755V93.8062H91.9329V93.9032ZM91.9329 89.2469V87.9858H88.2949C86.4267 87.9858 85.5418 88.4708 85.5418 89.7319C85.5418 90.896 86.5251 91.672 88.1966 91.672C90.1631 91.7691 91.8346 90.702 91.9329 89.2469Z" fill="#A08B63"/>
<path d="M111.206 85.5601V93.9027H108.257V86.4331C108.257 84.396 107.077 83.2319 105.012 83.2319C102.554 83.2319 101.177 85.075 101.177 87.4032V93.9997H98.2275V75.2773H101.177V83.1349C102.161 81.2918 103.832 80.4187 106.192 80.4187C109.338 80.4187 111.206 82.4559 111.206 85.5601Z" fill="#A08B63"/>
<path d="M127.43 87.2097C127.43 91.284 124.579 94.0002 120.351 94.0002C116.123 94.0002 113.271 91.284 113.271 87.2097C113.271 83.2324 116.123 80.4192 120.351 80.4192C124.48 80.4192 127.43 83.2324 127.43 87.2097ZM116.221 87.3067C116.221 89.9259 117.893 91.672 120.351 91.672C122.809 91.672 124.48 89.9259 124.48 87.3067C124.48 84.7845 122.809 82.9414 120.351 82.9414C117.893 82.9414 116.221 84.6875 116.221 87.3067Z" fill="#A08B63"/>
<path d="M137.459 93.0295C136.377 93.6116 135.296 93.9996 134.116 93.9996C132.051 93.9996 130.281 92.8355 130.281 90.1193V83.2318H128.413V81.0976H130.281V77.4114H133.231V81.0976H137.262V83.2318H133.231V89.6343C133.231 90.9924 133.723 91.4774 134.706 91.4774C135.296 91.4774 135.984 91.2834 136.771 90.8954L137.459 93.0295Z" fill="#A08B63"/>
<path d="M143.358 82.7475C142.178 82.7475 141.392 83.1355 141.392 84.1056C141.392 86.5308 148.569 85.2697 148.569 90.1201C148.569 92.8363 146.111 94.0974 143.358 94.0974C141.392 94.0974 139.228 93.4183 137.95 92.2542L139.032 90.2171C140.212 91.2842 142.08 91.8662 143.555 91.8662C144.833 91.8662 145.816 91.4782 145.816 90.4111C145.816 87.6949 138.737 89.247 138.737 84.3966C138.737 81.6804 141.097 80.5164 143.751 80.5164C145.423 80.5164 147.291 81.0014 148.471 81.8745L147.389 84.0086C146.013 83.2326 144.538 82.7475 143.358 82.7475Z" fill="#A08B63"/>
<path d="M158.99 93.9032V92.2541C158.007 93.4182 156.434 94.0002 154.468 94.0002C151.518 94.0002 149.748 92.2541 149.748 89.8289C149.748 87.4037 151.616 85.8516 154.861 85.8516H158.99V85.4636C158.99 83.8144 157.909 82.7474 155.746 82.7474C154.468 82.7474 153.091 83.2324 151.715 84.1055L150.535 82.0683C152.403 81.0012 153.779 80.4192 156.336 80.4192C159.777 80.4192 161.744 82.1653 161.842 85.0755V93.8062H158.99V93.9032ZM158.892 89.2469V87.9858H155.254C153.386 87.9858 152.501 88.4708 152.501 89.7319C152.501 90.896 153.484 91.672 155.156 91.672C157.221 91.7691 158.794 90.702 158.892 89.2469Z" fill="#A08B63"/>
<path d="M165.678 80.5164L169.414 90.9931L173.151 80.5164H176.1L170.889 93.9033H167.841L162.63 80.5164H165.678Z" fill="#A08B63"/>
<path d="M11.0123 83.6202H3.83464L2.4581 86.8214H0L6.29274 72.7554H8.75084L14.9453 86.8214H12.3888L11.0123 83.6202ZM10.1274 81.486L7.47263 75.2776L4.71955 81.486H10.1274Z" fill="#A08B63"/>
<path d="M34.315 80.1289V86.8224H31.9552V80.808C31.9552 79.1589 30.9719 78.1888 29.3988 78.1888C27.5306 78.2858 26.449 79.6439 26.449 81.487V86.7254H24.0893V80.711C24.0893 79.0618 23.106 78.0918 21.5328 78.0918C19.6647 78.1888 18.4848 79.5469 18.4848 81.39V86.6284H16.125V75.9576H18.4848V77.9948C19.2714 76.4426 20.6479 75.8606 22.4177 75.8606C24.3842 75.8606 25.6624 76.8307 26.1541 78.4798C26.8423 76.7337 28.3172 75.8606 30.2837 75.8606C32.8401 76.0546 34.315 77.6067 34.315 80.1289Z" fill="#A08B63"/>
<path d="M43.0678 76.0542V78.2854C40.9046 78.1884 39.5281 79.4495 39.3315 81.2926V86.919H36.9717V76.2482H39.3315V78.3824C40.0197 76.8303 41.2979 76.0542 43.0678 76.0542Z" fill="#A08B63"/>
<path d="M46.9982 73.0468C46.9982 73.8229 46.4083 74.4049 45.6217 74.4049C44.8351 74.4049 44.2451 73.8229 44.2451 73.0468C44.2451 72.2708 44.8351 71.6887 45.6217 71.6887C46.4083 71.6887 46.9982 72.2708 46.9982 73.0468ZM46.8015 76.151V86.8218H44.4418V76.151H46.8015Z" fill="#A08B63"/>
<path d="M55.8473 86.1428C54.9624 86.6279 54.0774 86.9189 53.1925 86.9189C51.521 86.9189 50.1445 85.9488 50.1445 83.8147V78.2853H48.5713V76.5391H50.1445V73.6289H52.5043V76.5391H55.7489V78.2853H52.5043V83.4266C52.5043 84.4937 52.8975 84.8817 53.6841 84.8817C54.1758 84.8817 54.6674 84.6877 55.3557 84.3967L55.8473 86.1428Z" fill="#A08B63"/>
<path fill-rule="evenodd" clip-rule="evenodd" d="M142.275 14.9387C141.488 14.5507 140.996 14.8417 140.406 15.1327C135.49 17.3639 130.574 17.2669 125.363 15.7148C121.233 14.5507 117.005 13.4836 112.679 13.0956C104.911 12.4165 98.0288 15.1327 91.3427 18.431C88.393 19.8861 85.5416 21.4382 82.2969 22.2143C79.4455 22.8933 78.364 21.7292 78.9539 18.916C79.4455 16.4908 78.8556 15.5208 76.4958 14.7447C75.9059 14.5507 75.2176 14.3567 74.5293 14.2597C66.2701 13.2896 58.1092 14.4537 50.0467 16.3938L49.3584 16.6849C49.3584 16.6849 58.4042 16.1028 62.3372 23.9604C67.3517 23.1843 72.3662 23.3783 77.3807 24.1544C79.4455 24.4454 80.2321 25.5125 79.4455 27.5497C79.1506 28.3257 78.9539 29.2958 78.9539 30.1689C78.7573 32.788 79.9372 33.8551 82.5919 33.2731C83.4768 33.0791 84.3617 32.7881 85.1483 32.4C88.7863 30.6539 92.4243 29.0048 95.7673 26.7736C99.307 24.3484 103.142 22.7963 107.566 22.4083C113.367 21.8262 119.168 22.2143 124.97 22.0202C129.984 21.8262 134.999 21.2442 139.227 18.237C140.406 17.2669 141.783 16.4908 142.275 14.9387Z" fill="#F7941D"/>
<path fill-rule="evenodd" clip-rule="evenodd" d="M142.275 32.9829C141.489 32.5949 140.997 32.8859 140.407 33.1769C135.491 35.4081 130.575 35.3111 125.364 33.759C121.234 32.5949 117.006 31.5278 112.68 31.1398C104.912 30.4607 98.0294 33.1769 91.3434 36.4752C88.3937 37.9303 85.5423 39.4824 82.2976 40.2585C79.4462 40.9375 78.3646 39.7734 78.9546 36.9602C79.4462 34.535 78.8563 33.565 76.4965 32.7889C75.9065 32.5949 75.2183 32.4009 74.53 32.3039C71.0887 31.9158 67.6473 31.8188 64.206 32.1098C64.1077 33.3709 63.1244 39.8704 57.0283 43.1687C57.8149 42.9747 58.5032 42.7806 59.2898 42.5866C65.2875 41.2285 71.3836 41.3255 77.4797 42.1016C79.5445 42.3926 80.3311 43.4597 79.5445 45.4968C79.2495 46.2729 79.0529 47.243 79.0529 48.116C78.8563 50.7352 80.0361 51.8023 82.6909 51.2203C83.5758 51.0262 84.4607 50.7352 85.2473 50.3472C88.8853 48.6011 92.5233 46.9519 95.8663 44.7208C99.406 42.2956 103.241 40.7435 107.665 40.3555C113.466 39.7734 119.267 40.1614 125.069 39.9674C130.083 39.7734 135.098 39.1914 139.326 36.1841C140.407 35.4081 141.784 34.632 142.275 32.9829Z" fill="#00A24E"/>
<path fill-rule="evenodd" clip-rule="evenodd" d="M9.14453 0V3.88029H32.5457L12.8808 39.4819L16.0272 41.7131L39.5267 0H9.14453Z" fill="#A08B63"/>
<path fill-rule="evenodd" clip-rule="evenodd" d="M61.7489 0H43.5589L30.2852 23.5728L33.3332 25.1249L45.5254 3.88029H61.7489V0Z" fill="#A08B63"/>
</g>
<defs>
<clipPath id="clip0">
<rect width="176" height="94" fill="white"/>
</clipPath>
</defs>
</svg>
