<?xml version="1.0" encoding="utf-8"?>
<!-- Generator: Adobe Illustrator 23.0.1, SVG Export Plug-In . SVG Version: 6.00 Build 0)  -->
<svg version="1.1" id="Layer_1" xmlns="http://www.w3.org/2000/svg" xmlns:xlink="http://www.w3.org/1999/xlink" x="0px" y="0px"
	 viewBox="0 0 200.2 94.2" style="enable-background:new 0 0 200.2 94.2;" xml:space="preserve">
<style type="text/css">
	.st0{fill:#F7A21D;}
	.st1{fill:#B2B3B2;}
</style>
<g>
	<g>
		<path d="M92.2,91.4H91l-0.5-1.3h-2.2l-0.5,1.3h-1.2l2.1-5.5H90L92.2,91.4z M90.2,89.2l-0.8-2l-0.7,2H90.2z"/>
	</g>
	<g>
		<path d="M96.4,91.4h-1.1v-2c0-0.4,0-0.7-0.1-0.8c0-0.1-0.1-0.2-0.2-0.3c-0.1-0.1-0.2-0.1-0.4-0.1c-0.2,0-0.3,0.1-0.5,0.2
			c-0.1,0.1-0.2,0.2-0.3,0.4c-0.1,0.2-0.1,0.5-0.1,0.9v1.8h-1.1v-4h1V88c0.3-0.5,0.8-0.7,1.3-0.7c0.2,0,0.4,0,0.6,0.1
			c0.2,0.1,0.3,0.2,0.4,0.3c0.1,0.1,0.2,0.3,0.2,0.4c0,0.2,0.1,0.4,0.1,0.7V91.4z"/>
	</g>
	<g>
		<path d="M104.3,91.4h-1.2l-0.5-1.3h-2.2l-0.5,1.3h-1.2l2.1-5.5h1.2L104.3,91.4z M102.3,89.2l-0.8-2l-0.7,2H102.3z"/>
	</g>
	<g>
		<path d="M104.8,91.7l1.2,0.1c0,0.1,0.1,0.2,0.1,0.3c0.1,0.1,0.3,0.1,0.5,0.1c0.3,0,0.5,0,0.6-0.1c0.1-0.1,0.2-0.1,0.2-0.3
			c0-0.1,0-0.2,0-0.5v-0.6c-0.3,0.4-0.7,0.6-1.2,0.6c-0.5,0-1-0.2-1.3-0.7c-0.2-0.4-0.4-0.8-0.4-1.3c0-0.7,0.2-1.2,0.5-1.5
			s0.7-0.5,1.2-0.5c0.5,0,0.9,0.2,1.2,0.6v-0.6h1V91c0,0.5,0,0.8-0.1,1.1c-0.1,0.2-0.2,0.4-0.3,0.5c-0.1,0.1-0.3,0.2-0.6,0.3
			S107,93,106.7,93c-0.7,0-1.2-0.1-1.4-0.3s-0.4-0.5-0.4-0.9C104.8,91.7,104.8,91.7,104.8,91.7z M105.7,89.3c0,0.4,0.1,0.7,0.2,0.9
			c0.2,0.2,0.4,0.3,0.6,0.3c0.3,0,0.5-0.1,0.7-0.3c0.2-0.2,0.3-0.5,0.3-0.9c0-0.4-0.1-0.7-0.3-0.9c-0.2-0.2-0.4-0.3-0.6-0.3
			c-0.3,0-0.5,0.1-0.6,0.3C105.8,88.6,105.7,88.9,105.7,89.3z"/>
	</g>
	<g>
		<path d="M110.6,91.4h-1.1v-4h1V88c0.2-0.3,0.3-0.4,0.5-0.5c0.1-0.1,0.3-0.1,0.5-0.1c0.2,0,0.5,0.1,0.7,0.2l-0.3,0.9
			c-0.2-0.1-0.3-0.2-0.5-0.2c-0.1,0-0.3,0-0.4,0.1c-0.1,0.1-0.2,0.2-0.2,0.4c-0.1,0.2-0.1,0.7-0.1,1.3V91.4z"/>
	</g>
	<g>
		<path d="M112.6,86.9v-1h1.1v1H112.6z M112.6,91.4v-4h1.1v4H112.6z"/>
	</g>
	<g>
		<path d="M114.5,88.7c0-0.6,0.1-1,0.3-1.4c0.1-0.3,0.3-0.5,0.5-0.8c0.2-0.2,0.5-0.4,0.7-0.5c0.3-0.1,0.7-0.2,1.2-0.2
			c0.8,0,1.5,0.3,1.9,0.8c0.5,0.5,0.7,1.2,0.7,2.1c0,0.9-0.2,1.6-0.7,2.1c-0.5,0.5-1.1,0.8-1.9,0.8c-0.8,0-1.5-0.2-2-0.7
			C114.8,90.2,114.5,89.5,114.5,88.7z M115.7,88.6c0,0.6,0.1,1.1,0.4,1.4c0.3,0.3,0.7,0.5,1.1,0.5s0.8-0.2,1.1-0.5
			c0.3-0.3,0.4-0.8,0.4-1.4c0-0.6-0.1-1.1-0.4-1.4c-0.3-0.3-0.6-0.5-1.1-0.5s-0.8,0.2-1.1,0.5C115.8,87.5,115.7,88,115.7,88.6z"/>
	</g>
	<g>
		<path d="M121.7,91.4h-1.1v-4h1V88c0.2-0.3,0.3-0.4,0.5-0.5c0.1-0.1,0.3-0.1,0.5-0.1c0.2,0,0.5,0.1,0.7,0.2l-0.3,0.9
			c-0.2-0.1-0.3-0.2-0.5-0.2c-0.1,0-0.3,0-0.4,0.1c-0.1,0.1-0.2,0.2-0.2,0.4c-0.1,0.2-0.1,0.7-0.1,1.3V91.4z"/>
	</g>
	<g>
		<path d="M123.7,86.9v-1h1.1v1H123.7z M123.7,91.4v-4h1.1v4H123.7z"/>
	</g>
	<g>
		<path d="M125.7,91.7l1.2,0.1c0,0.1,0.1,0.2,0.1,0.3c0.1,0.1,0.3,0.1,0.5,0.1c0.3,0,0.5,0,0.6-0.1c0.1-0.1,0.2-0.1,0.2-0.3
			c0-0.1,0-0.2,0-0.5v-0.6c-0.3,0.4-0.7,0.6-1.2,0.6c-0.5,0-1-0.2-1.3-0.7c-0.2-0.4-0.4-0.8-0.4-1.3c0-0.7,0.2-1.2,0.5-1.5
			c0.3-0.4,0.7-0.5,1.2-0.5c0.5,0,0.9,0.2,1.2,0.6v-0.6h1V91c0,0.5,0,0.8-0.1,1.1c-0.1,0.2-0.2,0.4-0.3,0.5
			c-0.1,0.1-0.3,0.2-0.6,0.3c-0.2,0.1-0.5,0.1-0.9,0.1c-0.7,0-1.2-0.1-1.4-0.3s-0.4-0.5-0.4-0.9C125.7,91.7,125.7,91.7,125.7,91.7z
			 M126.7,89.3c0,0.4,0.1,0.7,0.2,0.9c0.2,0.2,0.4,0.3,0.6,0.3c0.3,0,0.5-0.1,0.7-0.3c0.2-0.2,0.3-0.5,0.3-0.9
			c0-0.4-0.1-0.7-0.3-0.9c-0.2-0.2-0.4-0.3-0.6-0.3c-0.3,0-0.5,0.1-0.6,0.3C126.8,88.6,126.7,88.9,126.7,89.3z"/>
	</g>
	<g>
		<path d="M130.5,86.9v-1h1.1v1H130.5z M130.5,91.4v-4h1.1v4H130.5z"/>
	</g>
	<g>
		<path d="M136.3,91.4h-1.1v-2c0-0.4,0-0.7-0.1-0.8c0-0.1-0.1-0.2-0.2-0.3c-0.1-0.1-0.2-0.1-0.4-0.1c-0.2,0-0.3,0.1-0.5,0.2
			c-0.1,0.1-0.2,0.2-0.3,0.4c-0.1,0.2-0.1,0.5-0.1,0.9v1.8h-1.1v-4h1V88c0.3-0.5,0.8-0.7,1.3-0.7c0.2,0,0.4,0,0.6,0.1
			c0.2,0.1,0.3,0.2,0.4,0.3c0.1,0.1,0.2,0.3,0.2,0.4c0,0.2,0.1,0.4,0.1,0.7V91.4z"/>
	</g>
	<g>
		<path d="M139.3,88.7c0-0.6,0.1-1,0.3-1.4c0.1-0.3,0.3-0.5,0.5-0.8c0.2-0.2,0.5-0.4,0.7-0.5c0.3-0.1,0.7-0.2,1.2-0.2
			c0.8,0,1.5,0.3,1.9,0.8c0.5,0.5,0.7,1.2,0.7,2.1c0,0.9-0.2,1.6-0.7,2.1c-0.5,0.5-1.1,0.8-1.9,0.8c-0.8,0-1.5-0.2-2-0.7
			C139.5,90.2,139.3,89.5,139.3,88.7z M140.4,88.6c0,0.6,0.1,1.1,0.4,1.4c0.3,0.3,0.7,0.5,1.1,0.5c0.4,0,0.8-0.2,1.1-0.5
			c0.3-0.3,0.4-0.8,0.4-1.4c0-0.6-0.1-1.1-0.4-1.4c-0.3-0.3-0.6-0.5-1.1-0.5s-0.8,0.2-1.1,0.5C140.6,87.5,140.4,88,140.4,88.6z"/>
	</g>
	<g>
		<path d="M149.1,91.4H148v-2c0-0.4,0-0.7-0.1-0.8c0-0.1-0.1-0.2-0.2-0.3c-0.1-0.1-0.2-0.1-0.4-0.1c-0.2,0-0.3,0.1-0.5,0.2
			c-0.1,0.1-0.2,0.2-0.3,0.4c-0.1,0.2-0.1,0.5-0.1,0.9v1.8h-1.1v-4h1V88c0.3-0.5,0.8-0.7,1.3-0.7c0.2,0,0.4,0,0.6,0.1
			c0.2,0.1,0.3,0.2,0.4,0.3c0.1,0.1,0.2,0.3,0.2,0.4c0,0.2,0.1,0.4,0.1,0.7V91.4z"/>
	</g>
	<g>
		<path d="M152.5,90.1l1.1,0.2c-0.1,0.4-0.3,0.7-0.6,0.9c-0.3,0.2-0.7,0.3-1.1,0.3c-0.7,0-1.2-0.2-1.5-0.7c-0.3-0.4-0.4-0.8-0.4-1.4
			c0-0.7,0.2-1.2,0.5-1.6c0.3-0.4,0.8-0.6,1.3-0.6c0.6,0,1.1,0.2,1.4,0.6c0.3,0.4,0.5,1,0.5,1.8h-2.6c0,0.3,0.1,0.6,0.3,0.7
			c0.2,0.2,0.4,0.3,0.6,0.3c0.2,0,0.3,0,0.4-0.1C152.3,90.5,152.4,90.3,152.5,90.1z M152.5,89.1c0-0.3-0.1-0.5-0.2-0.7
			c-0.2-0.2-0.3-0.2-0.5-0.2c-0.2,0-0.4,0.1-0.6,0.3c-0.2,0.2-0.2,0.4-0.2,0.7H152.5z"/>
	</g>
	<g>
		<path d="M160.1,89.4l1.1,0.3c-0.2,0.6-0.4,1-0.8,1.3c-0.4,0.3-0.9,0.4-1.5,0.4c-0.7,0-1.3-0.2-1.8-0.7s-0.7-1.2-0.7-2
			c0-0.9,0.2-1.6,0.7-2.1c0.5-0.5,1.1-0.8,1.9-0.8c0.7,0,1.2,0.2,1.6,0.6c0.3,0.2,0.4,0.6,0.6,1l-1.1,0.3c-0.1-0.3-0.2-0.5-0.4-0.7
			c-0.2-0.2-0.5-0.2-0.8-0.2c-0.4,0-0.7,0.1-1,0.4c-0.3,0.3-0.4,0.8-0.4,1.4c0,0.7,0.1,1.2,0.4,1.5c0.3,0.3,0.6,0.4,1,0.4
			c0.3,0,0.5-0.1,0.8-0.3S160,89.8,160.1,89.4z"/>
	</g>
	<g>
		<path d="M161.9,89.3c0-0.4,0.1-0.7,0.3-1c0.2-0.3,0.4-0.6,0.7-0.8c0.3-0.2,0.7-0.3,1.1-0.3c0.6,0,1.1,0.2,1.5,0.6
			c0.4,0.4,0.6,0.9,0.6,1.5c0,0.6-0.2,1.1-0.6,1.5c-0.4,0.4-0.9,0.6-1.5,0.6c-0.4,0-0.7-0.1-1-0.2c-0.3-0.2-0.6-0.4-0.8-0.7
			C162,90.2,161.9,89.8,161.9,89.3z M163,89.4c0,0.4,0.1,0.7,0.3,0.9c0.2,0.2,0.4,0.3,0.7,0.3c0.3,0,0.5-0.1,0.7-0.3
			c0.2-0.2,0.3-0.5,0.3-0.9c0-0.4-0.1-0.7-0.3-0.9c-0.2-0.2-0.4-0.3-0.7-0.3c-0.3,0-0.5,0.1-0.7,0.3C163.1,88.7,163,89,163,89.4z"/>
	</g>
	<g>
		<path d="M166.8,87.4h1v0.5c0.3-0.4,0.8-0.6,1.2-0.6c0.3,0,0.5,0.1,0.7,0.2c0.2,0.1,0.3,0.3,0.5,0.5c0.2-0.2,0.4-0.4,0.6-0.5
			c0.2-0.1,0.4-0.2,0.6-0.2c0.3,0,0.5,0.1,0.7,0.2c0.2,0.1,0.4,0.3,0.5,0.5c0.1,0.2,0.1,0.4,0.1,0.8v2.5h-1.1v-2.3
			c0-0.4,0-0.7-0.1-0.8c-0.1-0.2-0.2-0.2-0.5-0.2c-0.1,0-0.3,0-0.4,0.1c-0.1,0.1-0.2,0.2-0.3,0.4c-0.1,0.2-0.1,0.4-0.1,0.8v1.9h-1.1
			v-2.2c0-0.4,0-0.6-0.1-0.8c0-0.1-0.1-0.2-0.2-0.3c-0.1-0.1-0.2-0.1-0.3-0.1c-0.2,0-0.3,0-0.4,0.1c-0.1,0.1-0.2,0.2-0.3,0.4
			c-0.1,0.2-0.1,0.4-0.1,0.8v1.9h-1.1V87.4z"/>
	</g>
	<g>
		<path d="M173.6,87.4h1V88c0.1-0.2,0.3-0.4,0.5-0.5s0.5-0.2,0.7-0.2c0.5,0,0.9,0.2,1.2,0.5c0.3,0.4,0.5,0.9,0.5,1.5
			c0,0.7-0.2,1.2-0.5,1.6c-0.3,0.4-0.7,0.6-1.2,0.6c-0.2,0-0.4,0-0.6-0.1c-0.2-0.1-0.4-0.2-0.6-0.5v2h-1.1V87.4z M174.7,89.3
			c0,0.4,0.1,0.8,0.3,1c0.2,0.2,0.4,0.3,0.6,0.3c0.2,0,0.4-0.1,0.6-0.3c0.2-0.2,0.2-0.5,0.2-1c0-0.4-0.1-0.7-0.3-0.9
			c-0.2-0.2-0.4-0.3-0.6-0.3c-0.3,0-0.5,0.1-0.6,0.3C174.8,88.6,174.7,88.9,174.7,89.3z"/>
	</g>
	<g>
		<path d="M179.2,88.6l-1-0.2c0.1-0.4,0.3-0.7,0.6-0.9c0.3-0.2,0.7-0.3,1.2-0.3c0.5,0,0.8,0.1,1.1,0.2c0.2,0.1,0.4,0.3,0.5,0.4
			s0.1,0.5,0.1,0.9l0,1.2c0,0.4,0,0.6,0.1,0.8c0,0.2,0.1,0.3,0.2,0.5h-1c0-0.1-0.1-0.2-0.1-0.3c0-0.1,0-0.1,0-0.1
			c-0.2,0.2-0.4,0.3-0.6,0.4c-0.2,0.1-0.4,0.1-0.7,0.1c-0.4,0-0.7-0.1-1-0.3s-0.4-0.5-0.4-0.8c0-0.2,0.1-0.4,0.2-0.6
			c0.1-0.2,0.3-0.3,0.5-0.4c0.2-0.1,0.5-0.2,0.8-0.2c0.5-0.1,0.8-0.2,1-0.3v-0.1c0-0.2,0-0.3-0.2-0.4c-0.1-0.1-0.3-0.1-0.6-0.1
			c-0.2,0-0.3,0-0.4,0.1C179.3,88.3,179.2,88.4,179.2,88.6z M180.6,89.5c-0.1,0-0.3,0.1-0.6,0.2c-0.3,0.1-0.5,0.1-0.6,0.2
			c-0.1,0.1-0.2,0.2-0.2,0.4c0,0.1,0.1,0.3,0.2,0.4c0.1,0.1,0.2,0.2,0.4,0.2c0.2,0,0.4-0.1,0.5-0.2c0.1-0.1,0.2-0.2,0.3-0.3
			c0-0.1,0-0.3,0-0.5V89.5z"/>
	</g>
	<g>
		<path d="M186.3,91.4h-1.1v-2c0-0.4,0-0.7-0.1-0.8c0-0.1-0.1-0.2-0.2-0.3c-0.1-0.1-0.2-0.1-0.4-0.1c-0.2,0-0.3,0.1-0.5,0.2
			c-0.1,0.1-0.2,0.2-0.3,0.4c-0.1,0.2-0.1,0.5-0.1,0.9v1.8h-1.1v-4h1V88c0.3-0.5,0.8-0.7,1.3-0.7c0.2,0,0.4,0,0.6,0.1
			c0.2,0.1,0.3,0.2,0.4,0.3c0.1,0.1,0.2,0.3,0.2,0.4c0,0.2,0.1,0.4,0.1,0.7V91.4z"/>
	</g>
	<g>
		<path d="M186.8,87.4h1.1l1,2.8l0.9-2.8h1.1l-1.4,3.8l-0.3,0.7c-0.1,0.2-0.2,0.4-0.3,0.5c-0.1,0.1-0.2,0.2-0.3,0.3
			c-0.1,0.1-0.2,0.1-0.4,0.2c-0.2,0-0.3,0.1-0.5,0.1c-0.2,0-0.4,0-0.6-0.1l-0.1-0.8c0.2,0,0.3,0,0.4,0c0.2,0,0.4-0.1,0.5-0.2
			c0.1-0.1,0.2-0.3,0.3-0.5L186.8,87.4z"/>
	</g>
</g>
<g>
	<g>
		<path d="M43.5,34.9c2,1.4,4.8,2.6,7.9,2.6c4.5,0,7.1-2.8,7.1-6.8c0-3.7-1.8-5.8-6.4-7.9c-5.6-2.3-9-5.7-9-11.3
			c0-6.2,4.4-10.8,11-10.8c3.5,0,6,0.9,7.5,1.9l-1.2,4.2C59.3,6.1,57,5,53.9,5c-4.6,0-6.4,3.2-6.4,6c0,3.7,2.1,5.5,6.8,7.7
			c5.8,2.6,8.7,5.8,8.7,11.7c0,6.1-3.9,11.5-11.9,11.5c-3.3,0-6.9-1.1-8.7-2.5L43.5,34.9z"/>
		<path d="M73.4,1.3v23.6c0,8.9,3.4,12.7,7.9,12.7c5.1,0,8.3-3.9,8.3-12.7V1.3h4.4v23.2c0,12.2-5.5,17.2-12.9,17.2
			c-7,0-12.2-4.7-12.2-17V1.3H73.4z"/>
		<path d="M101.7,1.8c2.1-0.4,4.9-0.8,8.4-0.8c4.3,0,7.5,1.2,9.5,3.3c1.9,1.9,3,4.8,3,8.3c0,3.6-0.9,6.4-2.6,8.5
			c-2.3,2.9-6.1,4.4-10.4,4.4c-1.3,0-2.5-0.1-3.5-0.4v15.9h-4.4V1.8z M106.1,21c1,0.3,2.2,0.4,3.6,0.4c5.3,0,8.5-3,8.5-8.5
			c0-5.3-3.2-7.8-8-7.8c-1.9,0-3.4,0.2-4.1,0.4V21z"/>
		<path d="M128.5,1.8c2.1-0.4,4.9-0.8,8.4-0.8c4.3,0,7.5,1.2,9.5,3.3c1.9,1.9,3,4.8,3,8.3c0,3.6-0.9,6.4-2.6,8.5
			c-2.3,2.9-6.1,4.4-10.4,4.4c-1.3,0-2.5-0.1-3.5-0.4v15.9h-4.4V1.8z M132.9,21c1,0.3,2.2,0.4,3.6,0.4c5.3,0,8.5-3,8.5-8.5
			c0-5.3-3.2-7.8-8-7.8c-1.9,0-3.4,0.2-4.1,0.4V21z"/>
		<path d="M155.4,1.3h4.4v35.5h14.5v4.3h-18.9V1.3z"/>
		<path d="M182.6,41.1V24.3L171.8,1.3h5l4.8,11c1.3,3,2.3,5.4,3.4,8.2h0.1c1-2.6,2.1-5.2,3.4-8.2l4.9-11h5L187,24.2v16.9H182.6z"/>
	</g>
	<g>
		<path class="st0" d="M87.7,82.6l-11-38.3h4.7l5.2,18.9c1.4,5.2,2.7,9.8,3.6,14.3h0.1c0.9-4.4,2.3-9.3,3.8-14.3l5.7-18.9h4.6
			l-12,38.3H87.7z"/>
		<path class="st0" d="M110.7,70.5l-3.5,12.1h-4.5l11.4-38.3h5.2l11.5,38.3h-4.6l-3.6-12.1H110.7z M121.8,66.7l-3.3-11
			c-0.7-2.5-1.2-4.8-1.7-7h-0.1c-0.5,2.3-1,4.6-1.7,6.9l-3.3,11.1H121.8z"/>
		<path class="st0" d="M135.8,44.3h4.3v34.2h14.4v4.2h-18.7V44.3z"/>
		<path class="st0" d="M163.7,44.3v38.3h-4.3V44.3H163.7z"/>
		<path class="st0" d="M171.3,44.8c2.6-0.5,5.8-0.8,9.2-0.8c6.2,0,10.7,1.6,13.6,4.8c3,3.1,4.7,7.6,4.7,13.8
			c0,6.3-1.7,11.4-4.8,14.9c-3.1,3.6-8.3,5.5-14.9,5.5c-3.1,0-5.7-0.2-7.9-0.5V44.8z M175.7,78.7c1.1,0.2,2.7,0.3,4.4,0.3
			c9.3,0,14.3-5.9,14.3-16.3c0-9-4.4-14.8-13.6-14.8c-2.2,0-3.9,0.2-5.1,0.5V78.7z"/>
	</g>
	<g>
		<polygon class="st1" points="21.5,2.8 1.4,26.4 21.9,49.2 16.5,26 		"/>
	</g>
	<g>
		<polygon class="st1" points="23.4,35.3 43.5,58.9 23,81.7 28.4,58.5 		"/>
	</g>
</g>
</svg>
