<?xml version="1.0" encoding="UTF-8" standalone="no"?>
<svg xmlns:dc="http://purl.org/dc/elements/1.1/" xmlns:cc="http://creativecommons.org/ns#" xmlns:rdf="http://www.w3.org/1999/02/22-rdf-syntax-ns#" xmlns:svg="http://www.w3.org/2000/svg" xmlns="http://www.w3.org/2000/svg" xmlns:sodipodi="http://sodipodi.sourceforge.net/DTD/sodipodi-0.dtd" xmlns:inkscape="http://www.inkscape.org/namespaces/inkscape" version="1.0" id="Layer_1" x="0px" y="0px" width="1366" height="450" viewBox="0 0 1366 450" enable-background="new 0 0 1366 768" xml:space="preserve" sodipodi:docname="element.svg" inkscape:version="1.0.1 (3bc2e813f5, 2020-09-07)"><metadata id="metadata19"><rdf:RDF><cc:Work rdf:about=""><dc:format>image/svg+xml</dc:format><dc:type rdf:resource="http://purl.org/dc/dcmitype/StillImage"/><dc:title/></cc:Work></rdf:RDF></metadata><defs id="defs17">
	
	

		
		
		
		
	</defs><sodipodi:namedview pagecolor="#ffffff" bordercolor="#666666" borderopacity="1" objecttolerance="10" gridtolerance="10" guidetolerance="10" inkscape:pageopacity="0" inkscape:pageshadow="2" inkscape:window-width="1280" inkscape:window-height="961" id="namedview15" showgrid="false" fit-margin-top="0" fit-margin-left="0" fit-margin-right="0" fit-margin-bottom="0" inkscape:zoom="0.56423601" inkscape:cx="650.29689" inkscape:cy="73.703366" inkscape:window-x="-8" inkscape:window-y="-8" inkscape:window-maximized="1" inkscape:current-layer="Layer_1"/>


<rect style="fill:#ffffff;stroke-width:8.5981;stroke-miterlimit:10;stroke-dasharray:8.5981, 8.5981" id="rect26" width="1366" height="450" x="0" y="0"/><path opacity="0.9" fill="#1e8189" d="m 0,0 v 210.93843 c 0,0 92.192933,26.11617 145.87489,69.30899 53.67996,43.19283 134.20391,41.1829 162.21189,22.09804 28.00697,-19.08486 110.09391,-83.70028 171.54687,-71.3172 64.18695,12.93429 128.36991,45.20016 185.55186,66.29496 57.18296,21.09479 115.53092,25.11293 182.05087,-15.06673 66.51895,-40.17965 120.19891,-60.26947 227.56282,-34.15244 104.2589,25.3605 156.8059,67.7692 291.2008,50.88405 V 0 Z" id="path2" style="stroke-width:0.928779;fill:#34a0ac;fill-opacity:1"/><path opacity="0.6" fill="#39bfbd" d="M 1135.4762,205.0872 C 1019.9453,182.98831 898.57934,192.02955 837.89539,209.25544 777.21043,226.48046 584.52057,225.63336 471.45966,200.06668 333.75776,168.92827 311.13277,197.7764 214.72184,221.25723 146.29889,237.91982 42.145969,219.85977 0,211.19636 v 67.38446 c 32.860976,-7.07013 88.818935,-18.97186 157.77788,-28.10367 86.65894,-11.47473 245.99483,2.82339 401.20371,32.95856 155.20889,30.13517 213.55985,-7.03131 456.29371,-31.13927 175.8918,-17.46829 297.2257,3.0356 350.7237,15.65417 V 213.8248 c -52.235,6.15832 -136.7659,9.19565 -230.5228,-8.7376 z" id="path4" style="stroke-width:0.928779;fill:#34f1d1;fill-opacity:1"/><path fill="#5bc4bf" d="M 0,272.70457" id="path6" style="stroke-width:0.928779"/><path opacity="0.8" fill="#5bc4bf" d="M 1103.8712,249.21943 C 884.11406,225.54337 857.07217,343.65134 407.0087,290.4998 173.88387,234.25967 124.18291,253.00638 0,278.58082 v 93.90348 c 49.909964,7.00888 102.25693,22.27401 270.7488,-14.2593 75.18895,-16.30287 143.9249,-25.07238 330.57876,13.52607 163.51288,33.81343 199.70186,5.0438 322.28577,-23.67061 194.46587,-45.55126 356.78477,31.1548 442.38567,25.70383 V 294.74912 C 1248.4791,263.03706 1131.2272,250.4737 1103.8712,249.21943 Z" id="path8" style="fill:#35daca;fill-opacity:1;stroke-width:0.928779" sodipodi:nodetypes="ccccsccccc"/></svg>